<?xml version="1.0" encoding="UTF-8"?>
<svg version="1.1" xmlns="http://www.w3.org/2000/svg" width="382" height="497">
<path d="M0 0 C-1.26705319 3.36415551 -2.71113193 6.37031789 -4.6015625 9.42578125 C-5.09140625 10.22177734 -5.58125 11.01777344 -6.0859375 11.83789062 C-6.59382813 12.65451172 -7.10171875 13.47113281 -7.625 14.3125 C-8.140625 15.14845703 -8.65625 15.98441406 -9.1875 16.84570312 C-10.45487004 18.89931199 -11.72578573 20.95063341 -13 23 C-7.64787296 25.04975078 -2.28400719 26.92265898 3.1875 28.625 C3.98140137 28.8737085 4.77530273 29.12241699 5.59326172 29.37866211 C8.39471349 30.25500424 11.19737405 31.12742056 14 32 C15.7013208 32.53149658 15.7013208 32.53149658 17.43701172 33.07373047 C35.72364783 38.79261143 35.72364783 38.79261143 54.08764648 44.25585938 C60.11968093 46.0111852 66.10079145 47.91853605 72.08569336 49.82739258 C79.01846076 52.02892226 85.99073897 54.05615926 93 56 C91.70425785 59.59691709 90.17448581 62.36431269 87.83203125 65.37890625 C87.19394531 66.20712891 86.55585938 67.03535156 85.8984375 67.88867188 C85.21007812 68.77103516 84.52171875 69.65339844 83.8125 70.5625 C82.34953813 72.45907849 80.88731557 74.35622745 79.42578125 76.25390625 C78.68408691 77.21441895 77.94239258 78.17493164 77.17822266 79.16455078 C73.91352641 83.414291 70.70545087 87.70550127 67.5 92 C62.35243567 98.88515598 57.15944283 105.73361208 51.9375 112.5625 C39.61830213 128.52770926 39.61830213 128.52770926 28 145 C19.54187879 146.45322352 10.11102797 144.33342581 1.6875 143.25 C0.24793677 143.06948517 -1.19168012 142.88939786 -2.63134766 142.7097168 C-6.34500584 142.2437741 -10.05733978 141.76810689 -13.76922607 141.28826904 C-15.98286383 141.0022144 -18.19673171 140.71799907 -20.41064453 140.43408203 C-24.56629385 139.90008248 -28.72082812 139.35785954 -32.875 138.8125 C-34.15157471 138.64588867 -35.42814941 138.47927734 -36.7434082 138.30761719 C-37.91863037 138.15067383 -39.09385254 137.99373047 -40.3046875 137.83203125 C-41.33577637 137.69514893 -42.36686523 137.5582666 -43.42919922 137.41723633 C-46 137 -46 137 -49 136 C-48.33333333 131.33333333 -47.66666667 126.66666667 -47 122 C-47.680625 121.55011719 -48.36125 121.10023438 -49.0625 120.63671875 C-55.54079843 116.33795423 -61.9702174 111.97440797 -68.37109375 107.5612793 C-74.23392194 103.52099618 -80.11506505 99.50800043 -86 95.5 C-94.36091512 89.80412658 -102.70783058 84.08857265 -111.03955078 78.35009766 C-114.6295409 75.87778815 -118.22100241 73.40761885 -121.8125 70.9375 C-122.48909668 70.47182617 -123.16569336 70.00615234 -123.86279297 69.52636719 C-126.56479589 67.66783202 -129.27125739 65.81916174 -132 64 C-130.83197501 57.32996254 -129.17632114 50.88618267 -127.2734375 44.390625 C-126.24896465 40.88824 -125.26484995 37.37562989 -124.2890625 33.859375 C-123.98444092 32.76246338 -123.67981934 31.66555176 -123.3659668 30.53540039 C-122.75919826 28.34749167 -122.15383192 26.15919346 -121.55004883 23.97045898 C-121.26411865 22.94251221 -120.97818848 21.91456543 -120.68359375 20.85546875 C-120.43150146 19.94434326 -120.17940918 19.03321777 -119.91967773 18.09448242 C-118.71149986 14.02927018 -117.36030322 10.01645612 -116 6 C-115.08182243 5.95028549 -115.08182243 5.95028549 -114.14509583 5.89956665 C-106.36738647 5.47793584 -98.5898832 5.05260381 -90.8125 4.625 C-89.57305634 4.55686096 -88.33361267 4.48872192 -87.05661011 4.41851807 C-73.21878119 3.65516801 -59.38524614 2.8780735 -45.5625 1.875 C-37.14904967 1.26557999 -28.74011999 0.74587777 -20.3125 0.375 C-18.95717163 0.31481689 -18.95717163 0.31481689 -17.57446289 0.25341797 C-11.71379669 0.01551686 -5.86512772 -0.04237015 0 0 Z " fill="#6524FF" transform="translate(231,171)"/>
<path d="M0 0 C50.49 0 100.98 0 153 0 C149.32319102 6.74081646 145.69807428 13.2601283 141.5625 19.6875 C140.51109468 21.33684193 139.46034564 22.98660234 138.41015625 24.63671875 C137.85859863 25.50216309 137.30704102 26.36760742 136.73876953 27.25927734 C133.63221023 32.15596855 130.56850639 37.07940981 127.5 42 C122.72097516 49.65380626 117.93522064 57.30325213 113.125 64.9375 C112.36606445 66.1450293 112.36606445 66.1450293 111.59179688 67.37695312 C111.13095703 68.10720703 110.67011719 68.83746094 110.1953125 69.58984375 C109.79328613 70.22784912 109.39125977 70.86585449 108.97705078 71.52319336 C108 73 108 73 107 74 C105.35509451 74.09608663 103.70604309 74.12187787 102.05833435 74.12025452 C100.98836212 74.12162918 99.91838989 74.12300385 98.81599426 74.12442017 C97.63204575 74.12082489 96.44809723 74.11722961 95.22827148 74.11352539 C93.36999725 74.11374443 93.36999725 74.11374443 91.47418213 74.1139679 C88.06730167 74.11338892 84.66048116 74.10835959 81.25361133 74.10139394 C77.69683174 74.09515993 74.14005142 74.09455656 70.58326721 74.09336853 C63.84363418 74.09025535 57.10401729 74.08204215 50.36439139 74.07201904 C42.69341602 74.06085748 35.02243989 74.05534735 27.35145843 74.05032361 C11.56762959 74.03985952 -4.21618313 74.02226035 -20 74 C-17.94960896 61.35131141 -14.20581103 49.04301585 -10.65234375 36.75 C-8.50114106 29.29841131 -6.4304875 21.824238 -4.36010742 14.34985352 C-3.94208862 12.84829712 -3.94208862 12.84829712 -3.515625 11.31640625 C-3.27102539 10.43412354 -3.02642578 9.55184082 -2.77441406 8.64282227 C-1.92357243 5.73917768 -0.956822 2.87046599 0 0 Z " fill="#6626FF" transform="translate(148,59)"/>
<path d="M0 0 C0.99 0.495 0.99 0.495 2 1 C-1.44056168 16.61364654 -4.58926454 28.6734203 -18.29296875 37.875 C-21.09568026 39.56559217 -23.89281836 40.93812822 -27 42 C-27 42.66 -27 43.32 -27 44 C-25.95630454 43.99861731 -25.95630454 43.99861731 -24.89152431 43.99720669 C-2.24018884 43.96771335 20.41114816 43.94857458 43.0625 43.9375 C43.92541908 43.9370657 44.78833817 43.93663139 45.67740631 43.93618393 C91.12084093 43.91392851 136.55911591 43.95932703 182 44.5 C183.50881681 44.51793673 183.50881681 44.51793673 185.04811478 44.53623581 C196.69895635 44.67601254 208.34957685 44.82881595 220 45 C214.51915902 50.51114656 214.51915902 50.51114656 211.828125 52.65625 C211.25521729 53.11443115 210.68230957 53.5726123 210.09204102 54.04467773 C209.48416748 54.52493408 208.87629395 55.00519043 208.25 55.5 C207.2753479 56.27549194 207.2753479 56.27549194 206.28100586 57.06665039 C200.71719699 61.47516903 195.07154895 65.77335525 189.41796875 70.06567383 C183.77034578 74.37006102 178.25207657 78.81716383 172.76049805 83.31811523 C167.54485437 87.58451306 162.23576562 91.70949724 156.8671875 95.78125 C154.17138493 97.78716817 154.17138493 97.78716817 152.54785156 99.390625 C149.88636178 101.89555656 148.27500299 102.9618493 144.62109375 103.46875 C140.51837035 102.93765312 136.93640744 101.90661997 133.0625 100.5 C132.37865234 100.26152344 131.69480469 100.02304688 130.99023438 99.77734375 C129.32341903 99.19454118 127.66119684 98.59862949 126 98 C126 97.01 126 96.02 126 95 C127.36669922 93.67236328 127.36669922 93.67236328 129.3046875 92.3203125 C130.02454834 91.81008545 130.74440918 91.2998584 131.48608398 90.77416992 C132.27442627 90.22994385 133.06276855 89.68571777 133.875 89.125 C135.53013726 87.95729959 137.18507964 86.7893229 138.83984375 85.62109375 C139.69433105 85.02280762 140.54881836 84.42452148 141.42919922 83.80810547 C145.45994439 80.97318631 149.44759102 78.07946027 153.4375 75.1875 C154.92304968 74.11440693 156.40872302 73.04148504 157.89453125 71.96875 C162.93790614 68.32378135 167.97182696 64.6659147 173 61 C161.15276044 60.71104294 149.45441957 61.30377422 137.63793945 62.15234375 C127.96580476 62.83781184 118.29454541 63.33656561 108.60775757 63.76275635 C89.45209833 64.60750431 70.32092418 65.7604318 51.1875 67 C50.15945692 67.06659002 50.15945692 67.06659002 49.11064529 67.1345253 C47.72910259 67.22401746 46.34756006 67.31351248 44.96601772 67.40301037 C29.44399186 68.40815525 13.92290897 69.37353378 -1.61129761 70.17086792 C-16.80150164 70.95291293 -31.97781187 71.93556004 -47.15429688 72.94750977 C-57.7680322 73.64776848 -68.37655481 74.23811389 -79.00668335 74.629776 C-84.54303848 74.84509094 -90.0338094 75.23639363 -95.54716492 75.78833008 C-99.10880021 76.09568505 -102.61237673 76.0952993 -106.1875 76.0625 C-108.12689453 76.04896484 -108.12689453 76.04896484 -110.10546875 76.03515625 C-111.53826172 76.01775391 -111.53826172 76.01775391 -113 76 C-109.38421309 71.90210816 -105.0443105 69.39355948 -100.4375 66.5625 C-86.57410829 57.90550078 -73.09788015 48.67118887 -59.58374023 39.48266602 C-51.03712541 33.68123158 -42.46740365 27.96638881 -33.67459106 22.54428101 C-26.64218257 18.19472809 -19.82176089 13.54539446 -13 8.875 C-11.72415107 8.00492565 -10.44810979 7.13513328 -9.171875 6.265625 C-6.11237846 4.1803008 -3.05543481 2.09127252 0 0 Z " fill="#BEA1F7" transform="translate(126,98)"/>
<path d="M0 0 C2.43603933 0.83084105 4.15880937 1.94892079 6.24682617 3.45166016 C7.00092773 3.98984375 7.7550293 4.52802734 8.53198242 5.08251953 C9.30928711 5.64648438 10.0865918 6.21044922 10.88745117 6.79150391 C11.68022461 7.35933594 12.47299805 7.92716797 13.28979492 8.51220703 C15.24300142 9.91239723 17.19196619 11.31811484 19.13745117 12.72900391 C17.84808427 16.59710461 15.48207306 18.02504608 12.32495117 20.35400391 C11.7497876 20.78696777 11.17462402 21.21993164 10.58203125 21.66601562 C8.77183177 23.02669253 6.95467801 24.37773267 5.13745117 25.72900391 C3.95973409 26.61357743 2.78263379 27.49897283 1.60620117 28.38525391 C-1.21159378 30.50672323 -4.0353544 32.62006968 -6.86254883 34.72900391 C2.77305282 36.50876626 12.45562729 37.63690026 22.18655396 38.73046875 C37.37420855 40.43992061 52.54450918 42.25478025 67.69995117 44.22900391 C94.74573182 47.74426356 121.83536539 50.88566438 148.92617798 54.03158569 C151.66294427 54.34970229 154.39960281 54.66873035 157.13623047 54.98803711 C158.88663084 55.19211329 160.63703762 55.39613457 162.38745117 55.60009766 C163.22858963 55.69811172 164.06972809 55.79612579 164.93635559 55.89710999 C170.0642935 56.49295227 175.19383127 57.07138279 180.32495117 57.63916016 C181.50887451 57.77306152 182.69279785 57.90696289 183.91259766 58.04492188 C186.02850934 58.28409139 188.1451765 58.51671512 190.26269531 58.74121094 C191.16109131 58.8441748 192.0594873 58.94713867 192.98510742 59.05322266 C193.74831299 59.13660889 194.51151855 59.21999512 195.29785156 59.3059082 C197.13745117 59.72900391 197.13745117 59.72900391 199.13745117 61.72900391 C198.49122803 62.09960938 197.84500488 62.47021484 197.17919922 62.85205078 C183.42900414 70.74449612 169.73323973 78.7164353 156.10449219 86.81713867 C147.86793447 91.71065438 139.60487439 96.55634413 131.32519531 101.37646484 C122.30319448 106.62901476 113.29517457 111.90518227 104.29101562 117.18823242 C103.06275016 117.90886443 101.83447865 118.62948613 100.60620117 119.35009766 C99.99467697 119.70888504 99.38315277 120.06767242 98.75309753 120.43733215 C94.96938516 122.6565895 91.1833348 124.8717987 87.39538574 127.08381653 C84.86615519 128.5608341 82.33753744 130.03889839 79.80908203 131.51724243 C78.57701998 132.23744863 77.34476314 132.95732172 76.11230469 133.67684937 C67.73415313 138.57016943 59.40816999 143.53869361 51.23632812 148.77148438 C49.57225165 149.81621258 47.85939698 150.7826899 46.13745117 151.72900391 C45.47745117 151.39900391 44.81745117 151.06900391 44.13745117 150.72900391 C44.72010742 150.20693359 45.30276367 149.68486328 45.90307617 149.14697266 C57.78142527 138.48260577 69.47947969 127.63275737 81.13745117 116.72900391 C107.23823131 92.32713038 107.23823131 92.32713038 118.13745117 82.72900391 C107.17437412 79.79925289 96.06769687 77.60328106 84.94995117 75.35400391 C82.95650553 74.94875184 80.96309758 74.5433143 78.96972656 74.13769531 C63.708174 71.03510417 48.43958356 67.96831628 33.1628418 64.94140625 C16.8841321 61.71504258 0.62037001 58.4460395 -15.60083008 54.93945312 C-24.28489748 53.06253332 -32.9765453 51.22509824 -41.67504883 49.41650391 C-43.50011963 49.03449829 -43.50011963 49.03449829 -45.36206055 48.64477539 C-52.20923908 47.21268043 -52.20923908 47.21268043 -59.12426758 46.18603516 C-60.02790039 46.03521484 -60.9315332 45.88439453 -61.86254883 45.72900391 C-62.19254883 45.06900391 -62.52254883 44.40900391 -62.86254883 43.72900391 C-62.06075195 43.15794922 -61.25895508 42.58689453 -60.43286133 41.99853516 C-48.00796651 33.14140529 -35.60839573 24.24930535 -23.33618164 15.18139648 C-20.19236636 12.8589076 -17.04265628 10.54447301 -13.89331055 8.22949219 C-12.11546154 6.91587593 -10.34866975 5.58915334 -8.58520508 4.25634766 C-7.70735352 3.60794922 -6.82950195 2.95955078 -5.92504883 2.29150391 C-5.21477539 1.75654297 -4.50450195 1.22158203 -3.77270508 0.67041016 C-1.86254883 -0.27099609 -1.86254883 -0.27099609 0 0 Z " fill="#BEA1F7" transform="translate(141.862548828125,275.27099609375)"/>
<path d="M0 0 C4.58672106 0.54911666 9.12123693 1.14704883 13.66015625 2.015625 C14.69092285 2.21260986 15.72168945 2.40959473 16.78369141 2.61254883 C17.86569824 2.82290771 18.94770508 3.0332666 20.0625 3.25 C21.18833496 3.46744873 22.31416992 3.68489746 23.47412109 3.90893555 C34.68794193 6.09632863 45.8503191 8.50822739 57 11 C55.64282151 13.88425532 54.09374438 16.38822109 52.19921875 18.94921875 C51.64121582 19.7057373 51.08321289 20.46225586 50.50830078 21.24169922 C49.60700439 22.45237061 49.60700439 22.45237061 48.6875 23.6875 C48.06085449 24.53328613 47.43420898 25.37907227 46.78857422 26.25048828 C41.18116824 33.79897366 35.47740354 41.27161653 29.74658203 48.7265625 C20.81716905 60.34952779 11.95057485 72.01103197 3.28930664 83.83544922 C-1.73213186 90.67505596 -6.87525891 97.41775567 -12.0324707 104.15527344 C-17.06318282 110.73956098 -21.99428111 117.39124249 -26.89111328 124.07543945 C-32.81088124 132.13969164 -38.89296569 140.07708672 -45 148 C-46.19845396 144.40463813 -45.71039445 143.34369113 -44.56323242 139.79663086 C-44.22017563 138.72061615 -43.87711884 137.64460144 -43.52366638 136.53598022 C-43.13816116 135.35750519 -42.75265594 134.17903015 -42.35546875 132.96484375 C-41.74685525 131.06643319 -41.13824616 129.16802122 -40.529809 127.26955414 C-39.87498112 125.2319481 -39.21588211 123.19576856 -38.55554199 121.15994263 C-36.47318457 114.73897576 -34.41685696 108.30965331 -32.35779953 101.88118553 C-31.64736442 99.66414864 -30.93585877 97.44745721 -30.22427368 95.23078918 C-27.07836471 85.42225981 -23.98573726 75.5983287 -20.94140625 65.7578125 C-20.64096185 64.78690391 -20.64096185 64.78690391 -20.33444786 63.796381 C-18.60381736 58.20129598 -16.87800792 52.60473078 -15.15658569 47.00680542 C-10.3147827 31.26411914 -5.28400952 15.60017364 0 0 Z " fill="#6726FF" transform="translate(168,348)"/>
<path d="M0 0 C0.99 0.495 0.99 0.495 2 1 C-7.08710129 8.54053699 -16.21452691 16.01217793 -25.5234375 23.27734375 C-28.63455078 25.70706814 -31.72401924 28.16284927 -34.80444336 30.63134766 C-36.09077006 31.66021532 -37.38060261 32.68471667 -38.67407227 33.70458984 C-41.44954204 35.90103607 -44.10335275 38.09792108 -46.67578125 40.53515625 C-51.64839338 45.1496752 -54.73759406 46.4724228 -61.625 46.5 C-63.75273739 46.3729709 -65.87985344 46.21995757 -68 46 C-63.44307808 42.17355924 -58.53972109 38.95310345 -53.58203125 35.6796875 C-51.68956669 34.4242278 -49.79715299 33.16869142 -47.90478516 31.91308594 C-46.92995178 31.26738647 -45.95511841 30.62168701 -44.95074463 29.9564209 C-40.21476243 26.81634078 -35.48860781 23.66155668 -30.76171875 20.5078125 C-28.91606565 19.27726872 -27.07036264 18.04679979 -25.22460938 16.81640625 C-24.31606201 16.21070801 -23.40751465 15.60500977 -22.47143555 14.98095703 C-14.98095703 9.98730469 -7.49047852 4.99365234 0 0 Z " fill="#C2A7F7" transform="translate(268,4)"/>
<path d="M0 0 C0.66 0.33 1.32 0.66 2 1 C-1.93093886 6.24125182 -5.73730913 9.8527917 -12 12 C-8 8 -4 4 0 0 Z " fill="#C8B0F8" transform="translate(198,415)"/>
</svg>
